<svg width="194.133362" height="48.000000" viewBox="0 0 194.133 48" fill="none" xmlns="http://www.w3.org/2000/svg" xmlns:xlink="http://www.w3.org/1999/xlink">
	<desc>
			Created with Pixso.
	</desc>
	<defs/>
	<path id="¯\_(ツ)_/¯" d="M60.77 23.89C60.77 20.47 61.22 17.18 62.13 14.03C63.04 10.88 64.41 8.02 66.21 5.45Q68.92 1.59 71.83 0L72.69 2.77C70.49 4.46 68.69 7.05 67.27 10.54Q65.17 15.76 64.97 22.23L64.95 24.17C64.95 30.01 66.01 35.08 68.13 39.39C69.41 41.96 70.93 43.97 72.69 45.43L71.83 48C69.83 46.87 67.92 45 66.1 42.36C62.55 37.21 60.77 31.06 60.77 23.89ZM132.58 24.12C132.58 27.5 132.14 30.74 131.25 33.84C130.38 36.93 129.03 39.79 127.21 42.41C125.41 45.03 123.51 46.89 121.53 48L120.65 45.43C122.96 43.64 124.82 40.87 126.22 37.11C127.63 33.34 128.36 29.16 128.39 24.57L128.39 23.85C128.39 20.67 128.06 17.71 127.39 14.99C126.73 12.25 125.81 9.79 124.62 7.63C123.44 5.46 122.12 3.77 120.65 2.56L121.53 0C123.51 1.1 125.4 2.95 127.19 5.54C129 8.13 130.34 10.98 131.23 14.1Q132.58 18.78 132.58 24.12ZM91.09 3.54L94.64 2.33C95.66 4.57 98.43 11.96 99.22 14.57L95.61 15.82C94.88 13.17 92.24 5.96 91.09 3.54ZM110.91 4.1L115.17 5.31C114.84 6.1 114.52 7.22 114.33 7.96C112.95 13.73 110.45 20.38 106.66 25.41C101.9 31.74 95.06 36.53 88.54 38.85L85.35 35.6C91.96 33.64 98.85 29.18 103.52 23.22C107.17 18.52 109.99 11.08 110.91 4.1ZM18.86 4.24L22.83 4.24L36.56 40.16L32.58 40.16L18.86 4.24ZM160.71 40.16L157.12 40.16L170.84 4.24L174.4 4.24L160.71 40.16ZM15.16 7.74L0 7.74L0 4.49L15.16 4.49L15.16 7.74ZM194.13 7.74L178.96 7.74L178.96 4.49L194.13 4.49L194.13 7.74ZM78.1 6.47L81.75 5.12C82.95 7.73 85.86 14.85 86.93 17.87L83.27 19.22C82.4 16.34 79.21 8.47 78.1 6.47ZM57.68 40.75L37.01 40.75L37.01 37.32L57.68 37.32L57.68 40.75ZM156.62 40.75L135.95 40.75L135.95 37.32L156.62 37.32L156.62 40.75Z" fill="#000000" fill-opacity="1.000000" fill-rule="evenodd"/>
</svg>
