<svg width="75.000000" height="36.000000" viewBox="0 0 75 36" fill="none" xmlns="http://www.w3.org/2000/svg" xmlns:xlink="http://www.w3.org/1999/xlink">
	<desc>
			Created with Pixso.
	</desc>
	<defs>
		<clipPath id="clip1_2463">
			<rect id="logo/klerk" rx="-0.500000" width="74.000000" height="35.000000" transform="translate(0.500000 0.500000)" fill="white" fill-opacity="0"/>
		</clipPath>
	</defs>
	<g clip-path="url(#clip1_2463)">
		<path id="Vector" d="M72.64 11C72.64 14.21 69.65 17 66.67 17L66.67 11L64.68 11L64.68 25L66.67 25L66.67 19C69.65 19 72.64 21.79 72.64 25L74.63 25C74.63 21.05 72.64 19 69.88 18C72.64 17 74.63 14.5 74.63 11L72.64 11ZM7.96 11C7.96 14.21 4.97 17 1.99 17L1.99 11L0 11L0 25L1.99 25L1.99 19C4.97 19 7.96 21.79 7.96 25L9.95 25C9.95 21.05 7.96 19 5.2 18C7.96 17 9.95 14.5 9.95 11L7.96 11ZM16.14 12.95C16.13 12.99 11.94 24.57 11.94 24.57L14.14 25.36C14.14 25.36 18.37 13.66 18.38 13.64C18.49 13.32 18.79 13.32 18.89 13.32C19.09 13.32 19.33 13.38 19.44 13.68L23.66 25.36L25.87 24.57L21.66 12.95C21.44 12.24 20.6 11 18.91 11C17.18 10.98 16.36 12.22 16.14 12.95ZM49.75 18C49.75 15.24 51.98 13 54.73 13C57.47 13 59.7 15.24 59.7 18C59.7 20.75 57.47 23 54.73 23C51.98 23 49.75 20.75 49.75 18ZM47.76 18L47.76 34L49.75 34L49.75 22.51C50.63 24.05 52.97 24.96 54.73 25C58.62 24.96 61.77 21.83 61.69 18C61.77 14.13 58.62 11 54.73 11C50.9 11 47.76 14.13 47.76 18Z" fill="#000000" fill-opacity="1.000000" fill-rule="evenodd"/>
		<path id="Vector" d="M43.54 20.22L45.09 21.42C45.08 21.43 44.22 22.52 43.14 24.65C41.83 27.25 41.25 28.68 41.25 28.69L41.21 28.78C39.26 32.53 36.11 34.21 32.79 33.28C31.02 32.78 29.55 31.64 28.66 30.06C27.76 28.47 27.55 26.64 28.05 24.89L32.6 9.05C33 7.65 33.93 6.49 35.22 5.78C36.51 5.07 38 4.9 39.42 5.3C42.34 6.12 44.05 9.14 43.22 12.03L43.21 12.05L39.76 23.07L39.77 23.05C39.14 25.22 36.95 26.45 34.79 25.84C33.75 25.55 32.89 24.9 32.38 24C31.87 23.08 31.75 21.99 32.05 20.92L35.21 10.17L37.09 10.71L33.94 21.46C33.78 22.02 33.84 22.59 34.1 23.05C34.36 23.51 34.78 23.83 35.32 23.98C36.45 24.29 37.55 23.67 37.88 22.52L37.88 22.5C37.88 22.5 41.32 11.54 41.33 11.5C41.42 11.18 41.46 10.86 41.46 10.54C41.46 9.02 40.44 7.61 38.88 7.17C37.97 6.91 37.01 7.02 36.18 7.48C35.35 7.93 34.75 8.68 34.49 9.58L29.94 25.42C29.2 28 30.72 30.68 33.32 31.41C36.69 32.36 38.71 29.32 39.44 27.93C39.56 27.65 40.15 26.23 41.39 23.78C42.56 21.46 43.5 20.27 43.54 20.22Z" fill="#EF3124" fill-opacity="1.000000" fill-rule="evenodd"/>
	</g>
</svg>
